<svg width="128" height="128" viewBox="0 0 128 128" fill="none" xmlns="http://www.w3.org/2000/svg">
  <defs>
    <linearGradient id="bg-gradient" x1="20" y1="8" x2="112" y2="120" gradientUnits="userSpaceOnUse">
      <stop offset="0" stop-color="#2563EB" />
      <stop offset="1" stop-color="#22D3EE" />
    </linearGradient>
    <linearGradient id="p-gradient" x1="44" y1="36" x2="92" y2="84" gradientUnits="userSpaceOnUse">
      <stop offset="0" stop-color="#F8FAFC" />
      <stop offset="1" stop-color="#E2E8F0" />
    </linearGradient>
  </defs>
  <rect x="8" y="8" width="112" height="112" rx="28" fill="url(#bg-gradient)" />
  <rect x="12" y="12" width="104" height="104" rx="24" fill="#0F172A" fill-opacity="0.12" />
  <path d="M48 30c0-4.418 3.582-8 8-8h18c14.359 0 26 11.641 26 26s-11.641 26-26 26H64v18c0 7.732-6.268 14-14 14h-8V30z" fill="url(#p-gradient)" />
  <path d="M64 38v20h10c5.523 0 10-4.477 10-10s-4.477-10-10-10H64z" fill="#38BDF8" />
  <path d="M36 32l6-12 6 12 12 6-12 6-6 12-6-12-12-6 12-6z" fill="#FACC15" opacity="0.9" />
  <circle cx="94" cy="86" r="12" fill="#0F172A" fill-opacity="0.18" />
  <path d="M94 76c2.21 0 4 1.79 4 4s-1.79 4-4 4-4-1.79-4-4 1.79-4 4-4zm0 24c-5.523 0-10-4.477-10-10 0-1.657 1.343-3 3-3h14c1.657 0 3 1.343 3 3 0 5.523-4.477 10-10 10z" fill="#F8FAFC" />
</svg>
